<svg width="86" height="20" viewBox="0 0 86 20" fill="none" xmlns="http://www.w3.org/2000/svg">
<path d="M0.332031 6.03255C0.332031 6.51009 0.586794 6.95135 1.00035 7.19012L5.86659 9.99965V6.80427L11.4012 9.99965V7.57598C11.4012 7.09845 11.1464 6.65718 10.7328 6.41841L5.86659 3.60889V6.80427L0.332031 3.60889V6.03255Z" fill="#0F0F14"/>
<path d="M11.4012 9.99974L5.86659 13.1951V9.99974L1.00036 12.8093C0.586795 13.048 0.332031 13.4893 0.332031 13.9668V16.3905L5.86659 13.1951V16.3905L10.7328 13.581C11.1464 13.3422 11.4012 12.9009 11.4012 12.4234V9.99974Z" fill="#0F0F14"/>
<path d="M18.9859 13.7295C19.6282 14.0939 20.3573 14.2674 21.1559 14.2674C22.1627 14.2674 23.0133 13.9898 23.7251 13.4345C24.4368 12.8793 24.8882 12.1506 25.0791 11.2483H23.2217C23.0307 11.6994 22.7529 12.0291 22.4058 12.272C22.0586 12.5149 21.6419 12.6364 21.1732 12.6364C20.4788 12.6364 19.8886 12.3935 19.4373 11.9076C18.9859 11.4218 18.7603 10.7972 18.7603 10.0337C18.7603 9.27028 18.9859 8.64564 19.4373 8.15982C19.8886 7.67399 20.4788 7.43107 21.1732 7.43107C21.6593 7.43107 22.0759 7.55253 22.4231 7.79544C22.7703 8.03836 23.0481 8.38538 23.2217 8.8018H25.0791C24.8882 7.93425 24.4368 7.20551 23.7251 6.63292C23.0133 6.07769 22.1627 5.78272 21.1559 5.78272C20.3573 5.78272 19.6282 5.97358 18.9859 6.33795C18.3436 6.70233 17.8402 7.20551 17.4756 7.8475C17.1111 8.50684 16.9375 9.23558 16.9375 10.0337C16.9375 10.8492 17.1111 11.578 17.4756 12.22C17.8402 12.8793 18.3436 13.3825 18.9859 13.7295Z" fill="#0F0F14"/>
<path d="M31.6902 6.30325C31.0652 5.95623 30.3709 5.78272 29.607 5.78272C28.8085 5.78272 28.0968 5.97358 27.4718 6.33795C26.8295 6.71968 26.3261 7.22286 25.9615 7.86485C25.597 8.52419 25.4234 9.23558 25.4234 10.0337C25.4234 10.8666 25.597 11.5953 25.9442 12.2373C26.2914 12.8793 26.7601 13.3825 27.3503 13.7295C27.9405 14.0939 28.6002 14.2674 29.3293 14.2674C29.8674 14.2674 30.3709 14.1459 30.8569 13.903C31.3256 13.6601 31.7075 13.2957 32.0027 12.8446L32.1415 14.0939H33.756V10.0337C33.756 9.16618 33.565 8.42008 33.2005 7.77809C32.8186 7.1361 32.3151 6.65027 31.6902 6.30325ZM30.7528 12.3414C30.3882 12.5496 30.0063 12.6364 29.607 12.6364C28.9127 12.6364 28.3398 12.4108 27.9058 11.925C27.4544 11.4392 27.2461 10.8145 27.2461 10.0337C27.2461 9.53055 27.3503 9.07942 27.5586 8.68035C27.7669 8.28127 28.0447 7.96895 28.4092 7.74339C28.7564 7.53518 29.1557 7.41372 29.607 7.41372C30.0237 7.41372 30.4056 7.51783 30.7701 7.72604C31.1173 7.93425 31.4124 8.24657 31.6207 8.64565C31.8291 9.04472 31.9506 9.5132 31.9506 10.0337C31.9506 10.5716 31.8291 11.0401 31.6207 11.4392C31.3951 11.8382 31.1 12.1332 30.7528 12.3414Z" fill="#0F0F14"/>
<path d="M40.8769 6.33795C40.2519 5.97358 39.5402 5.78272 38.7764 5.78272C38.0125 5.78272 37.3355 5.95623 36.7106 6.30325C36.0856 6.65027 35.5822 7.15345 35.2003 7.79544C34.8184 8.45478 34.6448 9.20088 34.6448 10.0684V17.1216H36.4849V13.0181C36.7974 13.4172 37.1793 13.7295 37.6653 13.9377C38.1341 14.1633 38.6201 14.2674 39.1409 14.2674C39.8353 14.2674 40.4602 14.0939 41.0505 13.7295C41.6233 13.3825 42.0747 12.8793 42.4219 12.22C42.7517 11.578 42.9253 10.8492 42.9253 10.0164C42.9253 9.21823 42.7343 8.50684 42.3698 7.86485C42.0052 7.22286 41.5018 6.71968 40.8769 6.33795ZM40.4602 11.9076C40.0262 12.3935 39.4881 12.6364 38.8284 12.6364C38.4118 12.6364 38.0299 12.5323 37.6653 12.3241C37.3008 12.1159 37.0057 11.8209 36.7974 11.4218C36.5717 11.0401 36.4675 10.5716 36.4675 10.0164C36.4675 9.49585 36.5717 9.02737 36.78 8.62829C36.9883 8.24657 37.2834 7.93425 37.6306 7.72604C37.9778 7.51783 38.3597 7.41372 38.7764 7.41372C39.436 7.41372 39.9742 7.65663 40.4255 8.14246C40.8769 8.62829 41.1025 9.25293 41.1025 10.0164C41.1025 10.7972 40.8769 11.4218 40.4602 11.9076Z" fill="#0F0F14"/>
<path d="M45.6818 13.7295C46.3241 14.0939 47.0532 14.2674 47.8517 14.2674C48.8586 14.2674 49.7092 13.9898 50.4209 13.4345C51.1327 12.8793 51.584 12.1506 51.775 11.2483H49.9175C49.7266 11.6994 49.4488 12.0291 49.1016 12.272C48.7544 12.5149 48.3378 12.6364 47.8691 12.6364C47.1747 12.6364 46.5845 12.3935 46.1331 11.9076C45.6818 11.4218 45.4561 10.7972 45.4561 10.0337C45.4561 9.27028 45.6818 8.64564 46.1331 8.15982C46.5845 7.67399 47.1747 7.43107 47.8691 7.43107C48.3552 7.43107 48.7718 7.55253 49.119 7.79544C49.4662 8.03836 49.7439 8.38538 49.9175 8.8018H51.775C51.584 7.93425 51.1327 7.20551 50.4209 6.63292C49.7092 6.07769 48.8586 5.78272 47.8517 5.78272C47.0532 5.78272 46.3241 5.97358 45.6818 6.33795C45.0395 6.70233 44.5361 7.20551 44.1715 7.8475C43.8069 8.50684 43.6334 9.23558 43.6334 10.0337C43.6334 10.8492 43.8069 11.578 44.1715 12.22C44.5361 12.8793 45.0395 13.3825 45.6818 13.7295Z" fill="#0F0F14"/>
<path d="M58.3971 6.1818C57.9284 5.92153 57.4076 5.78272 56.8521 5.78272C56.3313 5.78272 55.8626 5.90418 55.4112 6.12974C54.9599 6.35531 54.5953 6.68498 54.3176 7.1361V2.87793H52.4948V14.0939H54.3176V9.73876C54.3176 9.28763 54.4044 8.88856 54.5953 8.54154C54.7863 8.19452 55.0293 7.9169 55.3418 7.72604C55.6543 7.53518 55.9668 7.43107 56.3139 7.43107C56.8 7.43107 57.2166 7.62193 57.5638 7.96895C57.911 8.33333 58.0846 8.87121 58.0846 9.59995V14.0939H59.9247V9.27028C59.9247 8.52419 59.7859 7.8822 59.5081 7.36167C59.2303 6.84114 58.8484 6.44206 58.3971 6.1818Z" fill="#0F0F14"/>
<path d="M67.023 6.30325C66.398 5.95623 65.7036 5.78272 64.9398 5.78272C64.1413 5.78272 63.4295 5.97358 62.8046 6.33795C62.1623 6.71968 61.6589 7.22286 61.2943 7.86485C60.9298 8.52419 60.7562 9.23558 60.7562 10.0337C60.7562 10.8666 60.9298 11.5953 61.2769 12.2373C61.6241 12.8793 62.0928 13.3825 62.6831 13.7295C63.2733 14.0939 63.933 14.2674 64.6621 14.2674C65.2002 14.2674 65.7036 14.1459 66.1897 13.903C66.6584 13.6601 67.0403 13.2957 67.3354 12.8446L67.4743 14.0939H69.0887V10.0337C69.0887 9.16618 68.8978 8.42008 68.5332 7.77809C68.1513 7.1361 67.6479 6.65027 67.023 6.30325ZM66.0855 12.3414C65.721 12.5496 65.3391 12.6364 64.9398 12.6364C64.2454 12.6364 63.6726 12.4108 63.2386 11.925C62.7872 11.4392 62.5789 10.8145 62.5789 10.0337C62.5789 9.53055 62.6831 9.07942 62.8914 8.68035C63.0997 8.28127 63.3774 7.96895 63.742 7.74339C64.0892 7.53518 64.4885 7.41372 64.9398 7.41372C65.3564 7.41372 65.7383 7.51783 66.1029 7.72604C66.4501 7.93425 66.7452 8.24657 66.9535 8.64565C67.1618 9.04472 67.2833 9.5132 67.2833 10.0337C67.2833 10.5716 67.1618 11.0401 66.9535 11.4392C66.7278 11.8382 66.4327 12.1332 66.0855 12.3414Z" fill="#0F0F14"/>
<path d="M70.6372 13.5386C71.2274 14.0245 71.9913 14.2674 72.9113 14.2674C73.7446 14.2674 74.4563 14.0592 75.0465 13.6254C75.6194 13.1916 75.9145 12.619 75.9145 11.925C75.9145 11.3698 75.7756 10.936 75.5153 10.589C75.2549 10.2419 74.9424 9.98167 74.5778 9.80816C74.2133 9.63465 73.7619 9.4785 73.2064 9.30498C72.6509 9.16618 72.2517 9.01002 71.9913 8.85386C71.7309 8.71505 71.6094 8.48948 71.6094 8.19452C71.6094 7.93425 71.7135 7.70869 71.9218 7.53518C72.1301 7.36167 72.3905 7.27491 72.7204 7.27491C73.0676 7.27491 73.3453 7.37902 73.5536 7.56988C73.7619 7.76074 73.9008 8.02101 73.9703 8.35068H75.7583C75.6715 7.55253 75.359 6.91054 74.8209 6.45941C74.2654 6.00829 73.571 5.78272 72.7204 5.78272C72.1301 5.78272 71.6094 5.90418 71.1754 6.12974C70.724 6.35531 70.3942 6.65027 70.1685 7.01465C69.9428 7.39637 69.8387 7.77809 69.8387 8.19452C69.8387 8.74975 69.9602 9.20088 70.2206 9.53055C70.4636 9.87757 70.7761 10.1205 71.1406 10.294C71.4878 10.4675 71.9566 10.641 72.5121 10.7972C73.0676 10.9707 73.4668 11.1268 73.7272 11.2657C73.9876 11.4218 74.1265 11.6474 74.1265 11.925C74.1265 12.1679 74.0223 12.3761 73.814 12.5323C73.6057 12.7058 73.2932 12.7752 72.9113 12.7752C72.5294 12.7752 72.1996 12.6711 71.9218 12.4629C71.6441 12.2547 71.4878 11.977 71.4531 11.5953H69.6651C69.6998 12.3935 70.0296 13.0528 70.6372 13.5386Z" fill="#0F0F14"/>
<path d="M84.3373 10.6931C84.3373 10.5196 84.3547 10.3113 84.3547 10.0337C84.3547 9.23558 84.1811 8.52419 83.8339 7.86485C83.4867 7.22286 83.0007 6.71968 82.3931 6.33795C81.7855 5.97358 81.1258 5.78272 80.3967 5.78272C79.5982 5.78272 78.8864 5.97358 78.2615 6.33795C77.6366 6.70233 77.1331 7.20551 76.7859 7.8475C76.4388 8.48949 76.2652 9.21823 76.2652 10.0337C76.2652 10.8666 76.4388 11.5953 76.7859 12.2373C77.1331 12.8793 77.6366 13.3825 78.2615 13.7295C78.8864 14.0939 79.6155 14.2674 80.4141 14.2674C81.2821 14.2674 82.0632 14.0418 82.7576 13.5733C83.4346 13.1049 83.9034 12.4629 84.1464 11.6474H82.3584C82.0112 12.3414 81.3515 12.6711 80.3967 12.6711C79.8065 12.6711 79.3031 12.4976 78.8864 12.1506C78.4698 11.8035 78.1921 11.3177 78.0879 10.6931H84.3373ZM78.8864 7.89955C79.3031 7.55253 79.8065 7.37902 80.3967 7.37902C80.9522 7.37902 81.4383 7.56988 81.8549 7.9516C82.2542 8.33332 82.4799 8.78445 82.5493 9.30498H78.0879C78.2094 8.71505 78.4698 8.24657 78.8864 7.89955Z" fill="#0F0F14"/>
</svg>
